<?xml version="1.0" standalone="no"?>
<!DOCTYPE svg PUBLIC "-//W3C//DTD SVG 20010904//EN"
 "http://www.w3.org/TR/2001/REC-SVG-20010904/DTD/svg10.dtd">
<svg version="1.0" xmlns="http://www.w3.org/2000/svg"
 width="700.000000pt" height="700.000000pt" viewBox="0 0 700.000000 700.000000"
 preserveAspectRatio="xMidYMid meet">
<metadata>
Created by potrace 1.11, written by Peter Selinger 2001-2013
</metadata>
<g transform="translate(0.000000,700.000000) scale(0.100000,-0.100000)"
fill="#000000" stroke="none">
<path d="M2801 6484 c-86 -36 -120 -141 -68 -211 12 -16 111 -119 220 -228
l199 -198 -91 -91 -90 -90 -203 203 c-112 112 -216 212 -233 222 -80 50 -191
-5 -209 -103 -12 -66 7 -93 225 -310 115 -115 209 -212 209 -216 0 -4 -31 -38
-69 -76 l-69 -69 -213 211 c-221 220 -248 240 -314 229 -100 -16 -153 -131
-99 -215 8 -12 99 -107 202 -210 103 -104 193 -196 201 -205 13 -16 5 -26 -72
-102 -48 -47 -89 -85 -92 -85 -4 0 -97 90 -208 201 -110 111 -210 207 -222
215 -12 7 -39 15 -62 18 -109 10 -191 -117 -134 -210 10 -17 109 -121 220
-231 l201 -201 -72 -74 -73 -73 -208 208 c-115 115 -222 214 -240 222 -57 24
-138 0 -171 -49 -25 -39 -31 -107 -13 -142 8 -16 106 -120 216 -230 111 -111
201 -205 201 -210 0 -5 -31 -40 -68 -77 l-68 -68 -211 210 c-162 162 -218 212
-247 219 -120 34 -220 -78 -172 -191 7 -18 106 -124 219 -237 l206 -205 -90
-91 -90 -90 -207 207 c-115 114 -220 213 -236 218 -96 37 -199 -30 -198 -129
0 -21 7 -51 16 -67 8 -15 111 -124 229 -242 211 -210 215 -214 206 -245 -13
-43 -11 -147 2 -185 l12 -33 -213 -213 c-117 -117 -217 -219 -222 -228 -17
-31 -15 -91 4 -129 21 -43 53 -67 101 -77 66 -14 92 4 293 204 105 104 198
196 206 203 14 11 28 1 99 -73 46 -48 86 -88 88 -91 2 -2 -85 -93 -194 -203
-109 -109 -204 -209 -211 -222 -31 -56 -6 -146 50 -182 38 -25 89 -30 129 -13
23 9 112 89 236 214 l199 199 73 -73 72 -73 -193 -193 c-106 -106 -202 -206
-212 -223 -35 -57 -16 -144 40 -184 38 -27 97 -34 139 -16 17 7 119 102 227
209 107 108 199 196 203 196 4 0 46 -39 94 -87 l86 -87 -200 -200 c-112 -112
-206 -215 -214 -234 -49 -118 93 -240 202 -173 17 10 117 105 222 210 l192
193 70 -70 c39 -38 71 -72 71 -75 0 -3 -88 -94 -196 -203 -108 -109 -203 -212
-210 -230 -49 -116 71 -230 189 -180 18 7 120 102 228 210 l197 196 71 -71
c62 -61 70 -73 59 -86 -7 -9 -97 -100 -200 -203 -154 -155 -188 -195 -198
-228 -25 -95 41 -183 137 -182 21 1 49 7 63 14 13 8 113 102 220 210 l196 197
85 -86 c46 -47 85 -89 87 -94 1 -4 -82 -93 -186 -197 -104 -104 -196 -200
-205 -214 -23 -34 -22 -107 3 -147 33 -54 106 -80 170 -59 14 4 122 104 240
222 l216 214 34 -10 c41 -13 143 -11 183 3 28 9 36 2 255 -216 181 -179 235
-227 265 -235 115 -31 218 96 163 202 -7 15 -98 111 -202 215 -104 103 -197
197 -207 209 -18 19 -17 21 70 106 48 47 90 86 93 86 3 0 99 -95 214 -210 218
-219 244 -238 312 -227 98 16 151 133 97 216 -9 14 -106 115 -215 224 -109
109 -198 201 -198 205 0 4 31 39 70 77 l70 69 211 -212 c225 -225 248 -242
322 -228 67 13 123 95 111 164 -8 44 -28 67 -236 275 -109 109 -198 202 -198
205 0 4 31 38 69 76 l69 69 207 -207 c113 -113 219 -213 235 -221 62 -32 148
-7 184 55 23 38 25 110 4 142 -9 13 -108 116 -221 229 l-205 206 89 86 c48 48
91 87 94 87 4 0 96 -90 206 -200 110 -110 211 -207 224 -216 36 -24 105 -22
147 4 61 38 82 109 54 175 -7 18 -106 125 -220 239 l-206 206 71 72 c70 70 72
71 92 53 11 -10 106 -104 212 -210 149 -148 200 -193 229 -201 67 -19 127 4
161 63 30 50 32 99 6 140 -10 17 -109 120 -219 230 l-201 200 87 88 c47 48 90
87 93 87 4 0 99 -91 211 -203 112 -112 216 -208 231 -215 83 -35 189 20 197
103 8 81 13 75 -228 319 -218 220 -228 232 -221 261 11 48 10 149 -2 185 l-12
32 221 222 c121 121 225 232 232 245 7 13 12 41 12 63 -2 98 -103 164 -198
128 -15 -6 -122 -105 -238 -221 l-210 -210 -90 90 -90 90 209 210 c120 119
216 224 223 243 52 124 -94 243 -208 171 -14 -9 -114 -106 -224 -215 -109
-109 -202 -198 -205 -198 -4 0 -38 32 -76 70 l-68 71 208 207 c114 114 214
220 222 236 18 35 12 103 -13 142 -34 51 -112 73 -171 49 -18 -8 -124 -106
-237 -219 -113 -113 -209 -206 -213 -206 -5 0 -39 32 -77 70 l-68 69 203 203
c111 112 211 216 221 233 19 32 23 80 9 117 -31 79 -138 117 -206 73 -12 -7
-111 -103 -222 -214 -111 -110 -205 -201 -208 -201 -6 0 -175 169 -175 175 0
2 94 98 210 214 166 168 211 219 220 249 32 120 -102 227 -205 164 -17 -11
-121 -109 -231 -220 l-201 -201 -72 71 c-60 60 -69 73 -58 87 6 8 96 98 198
200 102 103 193 198 203 212 47 72 12 178 -69 209 -37 14 -82 12 -113 -4 -15
-8 -119 -107 -232 -220 l-205 -205 -91 90 -91 90 195 195 c229 228 242 244
242 297 0 104 -86 171 -183 143 -29 -9 -87 -61 -260 -232 -188 -188 -225 -220
-242 -214 -29 12 -154 12 -195 0 l-35 -10 -215 215 c-118 118 -224 221 -235
229 -30 20 -88 25 -124 10z m1846 -1841 c694 -698 1111 -1124 1116 -1141 7
-25 -34 -68 -700 -730 -390 -387 -895 -890 -1124 -1118 -363 -362 -419 -414
-445 -414 -27 0 -156 126 -1135 1111 -607 611 -1109 1120 -1115 1132 -6 11 -9
28 -7 38 5 16 2212 2220 2243 2239 6 4 22 5 36 2 15 -3 415 -398 1131 -1119z"/>
<path d="M3460 4770 c-19 -4 -51 -14 -70 -23 -36 -18 -1089 -1057 -1126 -1112
-45 -66 -50 -166 -11 -241 14 -29 204 -227 560 -585 430 -433 547 -544 585
-561 64 -29 146 -27 206 4 54 27 1114 1076 1141 1128 36 69 37 159 3 226 -34
66 -1084 1119 -1141 1144 -50 22 -99 28 -147 20z m522 -1757 l-486 -482 -483
487 -483 487 487 483 487 482 482 -487 483 -488 -487 -482z"/>
</g>
</svg>
