<svg width="485" height="485" viewBox="0 0 485 485" fill="none" xmlns="http://www.w3.org/2000/svg">
<mask id="mask0" mask-type="alpha" maskUnits="userSpaceOnUse" x="0" y="0" width="485" height="485">
<rect width="485" height="485" fill="#C4C4C4"/>
</mask>
<g mask="url(#mask0)">
<path d="M405.143 232.735L398.051 239.785L398.051 239.786L405.143 232.735ZM253.163 79.8492L260.255 72.7992L260.254 72.799L253.163 79.8492ZM232.777 79.7887L225.727 72.6965L225.727 72.6967L232.777 79.7887ZM79.891 231.771L72.841 224.679L72.8409 224.679L79.891 231.771ZM79.8305 252.156L72.7384 259.206L72.7385 259.206L79.8305 252.156ZM231.812 405.042L238.905 397.992L238.904 397.991L231.812 405.042ZM252.197 405.101L245.147 398.009L245.147 398.01L252.197 405.101ZM405.083 253.121L398.034 246.029L398.033 246.029L405.083 253.121ZM318.746 237.629L325.839 230.579L325.838 230.578L318.746 237.629ZM247.812 166.271L240.72 173.321L240.72 173.321L247.812 166.271ZM237.619 166.241L230.569 159.149L230.569 159.149L237.619 166.241ZM166.262 237.176L173.312 244.268L173.312 244.268L166.262 237.176ZM166.232 247.369L173.324 240.319L173.323 240.319L166.232 247.369ZM237.167 318.726L230.075 325.776L230.075 325.777L237.167 318.726ZM247.359 318.757L254.409 325.849L254.409 325.849L247.359 318.757ZM318.716 247.822L311.666 240.729L311.666 240.73L318.716 247.822ZM116.748 356.532C112.843 360.437 112.843 366.768 116.748 370.674C120.653 374.579 126.985 374.579 130.89 370.674L116.748 356.532ZM159.955 341.609C163.86 337.704 163.86 331.372 159.955 327.467C156.05 323.562 149.718 323.562 145.813 327.467L159.955 341.609ZM140.969 380.753C137.063 384.658 137.063 390.99 140.968 394.895C144.874 398.801 151.205 398.801 155.111 394.895L140.969 380.753ZM184.175 365.831C188.081 361.926 188.081 355.594 184.176 351.689C180.27 347.783 173.939 347.783 170.033 351.689L184.175 365.831ZM165.19 404.974C161.285 408.88 161.285 415.211 165.19 419.116C169.095 423.022 175.427 423.022 179.332 419.117L165.19 404.974ZM208.397 390.052C212.302 386.147 212.302 379.815 208.397 375.91C204.491 372.005 198.16 372.005 194.254 375.91L208.397 390.052ZM191.832 431.618C187.927 435.523 187.927 441.854 191.832 445.76C195.737 449.665 202.069 449.665 205.974 445.76L191.832 431.618ZM235.039 416.696C238.944 412.79 238.945 406.459 235.039 402.553C231.134 398.648 224.802 398.648 220.897 402.553L235.039 416.696ZM39.2419 279.026C35.3367 282.931 35.3367 289.263 39.242 293.168C43.1473 297.073 49.4789 297.073 53.3841 293.168L39.2419 279.026ZM82.4487 264.103C86.3539 260.198 86.3538 253.866 82.4485 249.961C78.5433 246.056 72.2116 246.056 68.3064 249.961L82.4487 264.103ZM65.8851 305.667C61.9799 309.573 61.9799 315.904 65.8852 319.809C69.7905 323.715 76.1221 323.715 80.0273 319.809L65.8851 305.667ZM109.092 290.744C112.997 286.839 112.997 280.507 109.092 276.602C105.186 272.697 98.8548 272.697 94.9496 276.602L109.092 290.744ZM90.1057 329.888C86.2004 333.794 86.2004 340.125 90.1057 344.031C94.0109 347.936 100.343 347.936 104.248 344.031L90.1057 329.888ZM133.312 314.966C137.218 311.061 137.218 304.729 133.312 300.824C129.407 296.919 123.075 296.919 119.17 300.824L133.312 314.966ZM326.359 146.92C322.454 150.826 322.454 157.157 326.36 161.062C330.265 164.968 336.596 164.968 340.502 161.062L326.359 146.92ZM371.988 129.575C375.893 125.67 375.893 119.338 371.988 115.433C368.083 111.528 361.751 111.528 357.846 115.433L371.988 129.575ZM350.579 171.142C346.674 175.047 346.674 181.379 350.579 185.284C354.484 189.189 360.816 189.189 364.721 185.284L350.579 171.142ZM396.207 153.797C400.113 149.892 400.113 143.56 396.207 139.655C392.302 135.75 385.97 135.75 382.065 139.655L396.207 153.797ZM374.801 195.363C370.895 199.268 370.895 205.6 374.8 209.505C378.706 213.411 385.037 213.411 388.943 209.506L374.801 195.363ZM420.431 178.019C424.336 174.113 424.336 167.782 420.431 163.876C416.526 159.971 410.194 159.971 406.289 163.876L420.431 178.019ZM401.444 222.007C397.539 225.912 397.54 232.244 401.445 236.149C405.35 240.054 411.682 240.054 415.587 236.148L401.444 222.007ZM447.071 204.661C450.976 200.756 450.976 194.424 447.071 190.519C443.165 186.614 436.834 186.614 432.929 190.52L447.071 204.661ZM248.853 69.4159C244.947 73.3212 244.947 79.6528 248.853 83.5581C252.758 87.4633 259.089 87.4633 262.995 83.558L248.853 69.4159ZM294.482 52.0711C298.387 48.1658 298.387 41.8342 294.482 37.9289C290.576 34.0237 284.245 34.0237 280.339 37.9289L294.482 52.0711ZM275.496 96.0574C271.59 99.9627 271.591 106.294 275.496 110.2C279.401 114.105 285.733 114.105 289.638 110.199L275.496 96.0574ZM321.124 78.7125C325.03 74.8072 325.03 68.4756 321.124 64.5703C317.219 60.6651 310.887 60.6652 306.982 64.5704L321.124 78.7125ZM299.716 120.277C295.811 124.182 295.811 130.514 299.716 134.419C303.622 138.324 309.953 138.324 313.858 134.419L299.716 120.277ZM345.345 102.932C349.251 99.0269 349.251 92.6953 345.345 88.79C341.44 84.8848 335.108 84.8848 331.203 88.7901L345.345 102.932ZM144.5 161.062C148.405 164.968 154.737 164.968 158.642 161.062C162.547 157.157 162.547 150.826 158.642 146.92L144.5 161.062ZM127.155 115.433C123.25 111.528 116.919 111.528 113.013 115.433C109.108 119.338 109.108 125.67 113.013 129.575L127.155 115.433ZM171.143 134.419C175.049 138.324 181.38 138.324 185.285 134.419C189.191 130.514 189.191 124.182 185.285 120.277L171.143 134.419ZM153.799 88.7901C149.893 84.8848 143.562 84.8848 139.656 88.79C135.751 92.6953 135.751 99.0269 139.656 102.932L153.799 88.7901ZM195.363 110.199C199.269 114.105 205.6 114.105 209.506 110.2C213.411 106.294 213.411 99.9627 209.506 96.0574L195.363 110.199ZM178.019 64.5704C174.114 60.6652 167.782 60.6651 163.877 64.5703C159.972 68.4755 159.972 74.8072 163.877 78.7125L178.019 64.5704ZM222.007 83.558C225.912 87.4633 232.244 87.4633 236.149 83.5581C240.054 79.6528 240.054 73.3212 236.149 69.4159L222.007 83.558ZM204.662 37.9289C200.757 34.0237 194.425 34.0237 190.52 37.9289C186.615 41.8342 186.615 48.1658 190.52 52.0711L204.662 37.9289ZM69.4154 236.149C73.3206 240.054 79.6523 240.054 83.5575 236.149C87.4628 232.244 87.4629 225.912 83.5576 222.007L69.4154 236.149ZM52.0711 190.52C48.1659 186.614 41.8343 186.614 37.929 190.52C34.0237 194.425 34.0237 200.756 37.9289 204.662L52.0711 190.52ZM96.059 209.505C99.9643 213.411 106.296 213.411 110.201 209.505C114.106 205.6 114.106 199.269 110.201 195.363L96.059 209.505ZM78.7143 163.876C74.809 159.971 68.4774 159.971 64.5722 163.876C60.6669 167.782 60.6669 174.113 64.5721 178.018L78.7143 163.876ZM120.28 185.284C124.186 189.189 130.517 189.189 134.423 185.284C138.328 181.379 138.328 175.047 134.423 171.142L120.28 185.284ZM102.936 139.655C99.0305 135.75 92.6988 135.75 88.7936 139.655C84.8883 143.56 84.8883 149.892 88.7936 153.797L102.936 139.655ZM355.424 371.987C359.329 375.893 365.661 375.893 369.566 371.987C373.471 368.082 373.471 361.751 369.566 357.845L355.424 371.987ZM338.079 326.358C334.174 322.453 327.842 322.453 323.937 326.358C320.032 330.264 320.032 336.595 323.937 340.5L338.079 326.358ZM382.065 345.344C385.97 349.249 392.302 349.249 396.207 345.344C400.113 341.439 400.113 335.107 396.207 331.202L382.065 345.344ZM364.721 299.715C360.816 295.81 354.484 295.81 350.579 299.715C346.674 303.62 346.674 309.952 350.579 313.857L364.721 299.715ZM406.289 321.123C410.194 325.028 416.526 325.028 420.431 321.123C424.336 317.217 424.336 310.886 420.431 306.98L406.289 321.123ZM388.943 275.493C385.037 271.588 378.706 271.588 374.8 275.494C370.895 279.399 370.895 285.731 374.801 289.636L388.943 275.493ZM432.929 294.479C436.834 298.384 443.165 298.384 447.071 294.479C450.976 290.574 450.976 284.243 447.071 280.337L432.929 294.479ZM415.587 248.851C411.682 244.945 405.35 244.945 401.445 248.85C397.54 252.755 397.539 259.087 401.444 262.992L415.587 248.851ZM280.34 447.071C284.245 450.976 290.577 450.976 294.482 447.071C298.387 443.165 298.387 436.834 294.481 432.929L280.34 447.071ZM262.994 401.444C259.089 397.539 252.757 397.539 248.852 401.445C244.947 405.35 244.947 411.682 248.853 415.587L262.994 401.444ZM306.983 420.43C310.888 424.335 317.219 424.335 321.125 420.43C325.03 416.525 325.03 410.193 321.125 406.288L306.983 420.43ZM289.638 374.8C285.733 370.894 279.401 370.894 275.496 374.799C271.591 378.705 271.59 385.036 275.496 388.942L289.638 374.8ZM331.203 396.206C335.109 400.112 341.44 400.112 345.345 396.206C349.251 392.301 349.251 385.969 345.345 382.064L331.203 396.206ZM313.858 350.578C309.953 346.673 303.621 346.673 299.716 350.578C295.811 354.483 295.811 360.815 299.716 364.72L313.858 350.578ZM412.235 225.685L260.255 72.7992L246.071 86.8992L398.051 239.785L412.235 225.685ZM260.254 72.799C250.748 63.2365 235.29 63.1903 225.727 72.6965L239.827 86.8808C241.556 85.1617 244.352 85.17 246.071 86.8993L260.254 72.799ZM225.727 72.6967L72.841 224.679L86.9411 238.863L239.827 86.8807L225.727 72.6967ZM72.8409 224.679C63.2784 234.185 63.2322 249.643 72.7384 259.206L86.9227 245.106C85.2036 243.377 85.2119 240.582 86.9412 238.863L72.8409 224.679ZM72.7385 259.206L224.72 412.092L238.904 397.991L86.9225 245.106L72.7385 259.206ZM224.719 412.091C234.226 421.656 249.686 421.7 259.248 412.193L245.147 398.01C243.417 399.73 240.623 399.721 238.905 397.992L224.719 412.091ZM259.248 412.193L412.133 260.214L398.033 246.029L245.147 398.009L259.248 412.193ZM412.133 260.214C421.698 250.707 421.741 235.247 412.235 225.685L398.051 239.786C399.772 241.516 399.762 244.311 398.034 246.029L412.133 260.214ZM325.838 230.578L254.904 159.221L240.72 173.321L311.654 244.679L325.838 230.578ZM254.904 159.222C248.204 152.481 237.309 152.449 230.569 159.149L244.669 173.333C243.575 174.42 241.807 174.415 240.72 173.321L254.904 159.222ZM230.569 159.149L159.212 230.084L173.312 244.268L244.669 173.333L230.569 159.149ZM159.212 230.084C152.472 236.784 152.44 247.68 159.14 254.419L173.323 240.319C174.411 241.413 174.406 243.181 173.312 244.268L159.212 230.084ZM159.14 254.419L230.075 325.776L244.259 311.676L173.324 240.319L159.14 254.419ZM230.075 325.777C236.774 332.515 247.669 332.549 254.409 325.849L240.309 311.664C241.403 310.577 243.171 310.583 244.258 311.676L230.075 325.777ZM254.409 325.849L325.766 254.914L311.666 240.73L240.309 311.665L254.409 325.849ZM325.766 254.914C332.506 248.213 332.538 237.318 325.839 230.579L311.654 244.678C310.567 243.585 310.572 241.817 311.666 240.729L325.766 254.914ZM130.89 370.674L159.955 341.609L145.813 327.467L116.748 356.532L130.89 370.674ZM155.111 394.895L184.175 365.831L170.033 351.689L140.969 380.753L155.111 394.895ZM179.332 419.117L208.397 390.052L194.254 375.91L165.19 404.974L179.332 419.117ZM205.974 445.76L235.039 416.696L220.897 402.553L191.832 431.618L205.974 445.76ZM53.3841 293.168L82.4487 264.103L68.3064 249.961L39.2419 279.026L53.3841 293.168ZM80.0273 319.809L109.092 290.744L94.9496 276.602L65.8851 305.667L80.0273 319.809ZM104.248 344.031L133.312 314.966L119.17 300.824L90.1057 329.888L104.248 344.031ZM340.502 161.062L371.988 129.575L357.846 115.433L326.359 146.92L340.502 161.062ZM364.721 185.284L396.207 153.797L382.065 139.655L350.579 171.142L364.721 185.284ZM388.943 209.506L420.431 178.019L406.289 163.876L374.801 195.363L388.943 209.506ZM415.587 236.148L447.071 204.661L432.929 190.52L401.444 222.007L415.587 236.148ZM262.995 83.558L294.482 52.0711L280.339 37.9289L248.853 69.4159L262.995 83.558ZM289.638 110.199L321.124 78.7125L306.982 64.5704L275.496 96.0574L289.638 110.199ZM313.858 134.419L345.345 102.932L331.203 88.7901L299.716 120.277L313.858 134.419ZM158.642 146.92L127.155 115.433L113.013 129.575L144.5 161.062L158.642 146.92ZM185.285 120.277L153.799 88.7901L139.656 102.932L171.143 134.419L185.285 120.277ZM209.506 96.0574L178.019 64.5704L163.877 78.7125L195.363 110.199L209.506 96.0574ZM236.149 69.4159L204.662 37.9289L190.52 52.0711L222.007 83.558L236.149 69.4159ZM83.5576 222.007L52.0711 190.52L37.9289 204.662L69.4154 236.149L83.5576 222.007ZM110.201 195.363L78.7143 163.876L64.5721 178.018L96.059 209.505L110.201 195.363ZM134.423 171.142L102.936 139.655L88.7936 153.797L120.28 185.284L134.423 171.142ZM369.566 357.845L338.079 326.358L323.937 340.5L355.424 371.987L369.566 357.845ZM396.207 331.202L364.721 299.715L350.579 313.857L382.065 345.344L396.207 331.202ZM420.431 306.98L388.943 275.493L374.801 289.636L406.289 321.123L420.431 306.98ZM447.071 280.337L415.587 248.851L401.444 262.992L432.929 294.479L447.071 280.337ZM294.481 432.929L262.994 401.444L248.853 415.587L280.34 447.071L294.481 432.929ZM321.125 406.288L289.638 374.8L275.496 388.942L306.983 420.43L321.125 406.288ZM345.345 382.064L313.858 350.578L299.716 364.72L331.203 396.206L345.345 382.064Z" fill="black"/>
</g>
</svg>
